<svg width="64" height="64" viewBox="0 0 64 64" fill="none" xmlns="http://www.w3.org/2000/svg">
<path d="M47.8047 45.9193L38.5089 36.6236C40.2721 34.4469 41.3334 31.6796 41.3334 28.6667C41.3334 21.6823 35.651 16 28.6667 16C21.6823 16 16 21.6823 16 28.6667C16 35.6511 21.6823 41.3334 28.6667 41.3334C31.6796 41.3334 34.4469 40.2721 36.6236 38.509L45.9193 47.8048C46.1798 48.0651 46.6018 48.0651 46.8622 47.8048L47.8048 46.8621C48.0651 46.6018 48.0651 46.1796 47.8047 45.9193ZM28.6667 38.6667C23.1524 38.6667 18.6667 34.181 18.6667 28.6667C18.6667 23.1524 23.1524 18.6667 28.6667 18.6667C34.181 18.6667 38.6667 23.1524 38.6667 28.6667C38.6667 34.181 34.181 38.6667 28.6667 38.6667Z" fill="#7059FF"/>
</svg>
